<?xml version="1.0" encoding="UTF-8" standalone="no"?>
<!-- Created with Inkscape (http://www.inkscape.org/) -->

<svg
   xmlns:dc="http://purl.org/dc/elements/1.1/"
   xmlns:cc="http://creativecommons.org/ns#"
   xmlns:rdf="http://www.w3.org/1999/02/22-rdf-syntax-ns#"
   xmlns:svg="http://www.w3.org/2000/svg"
   xmlns="http://www.w3.org/2000/svg"
   xmlns:sodipodi="http://sodipodi.sourceforge.net/DTD/sodipodi-0.dtd"
   xmlns:inkscape="http://www.inkscape.org/namespaces/inkscape"
   width="100px"
   height="100px"
   viewBox="0 0 100 100"
   version="1.1"
   id="SVGRoot"
   inkscape:version="0.92.5 (2060ec1f9f, 2020-04-08)"
   sodipodi:docname="icon_gaussmeter.svg">
  <defs
     id="defs34" />
  <sodipodi:namedview
     id="base"
     pagecolor="#ffffff"
     bordercolor="#666666"
     borderopacity="1.0"
     inkscape:pageopacity="0.0"
     inkscape:pageshadow="2"
     inkscape:zoom="3.6203867"
     inkscape:cx="28.274273"
     inkscape:cy="51.453668"
     inkscape:document-units="px"
     inkscape:current-layer="layer1"
     showgrid="false"
     inkscape:window-width="1920"
     inkscape:window-height="1009"
     inkscape:window-x="0"
     inkscape:window-y="0"
     inkscape:window-maximized="1"
     inkscape:grid-bbox="true"
     inkscape:snap-object-midpoints="false"
     inkscape:pagecheckerboard="true" />
  <metadata
     id="metadata37">
    <rdf:RDF>
      <cc:Work
         rdf:about="">
        <dc:format>image/svg+xml</dc:format>
        <dc:type
           rdf:resource="http://purl.org/dc/dcmitype/StillImage" />
        <dc:title></dc:title>
      </cc:Work>
    </rdf:RDF>
  </metadata>
  <g
     inkscape:groupmode="layer"
     id="layer2"
     inkscape:label="ground"
     style="display:none">
    <rect
       style="opacity:1;fill:#1a1a1a;stroke-width:1.02147901"
       id="rect3762"
       width="99.298782"
       height="99.43689"
       x="0.27621359"
       y="0.28689525" />
  </g>
  <g
     inkscape:label="Layer 1"
     inkscape:groupmode="layer"
     id="layer1"
     style="opacity:1">
    <g
       id="g4706"
       transform="translate(-0.41432037,-0.50451744)">
      <path
         inkscape:connector-curvature="0"
         id="path47"
         d="m 38.11318,21.152892 c -1.999841,0 -5.02306,1.123992 -7.628577,3.408681 -2.605516,2.284687 -4.757155,5.776249 -4.757155,10.4621 0,4.495321 2.021977,7.924615 4.565849,10.197715 2.543873,2.2731 5.586239,3.431342 7.819883,3.431342 1.820096,0 4.267936,0.02501 6.247525,-1.743054 1.979588,-1.768069 3.374283,-5.220961 3.374283,-11.886003 0,-6.667349 -1.442661,-10.177526 -3.438052,-12.003088 -1.995393,-1.825563 -4.444337,-1.867693 -6.183756,-1.867693 z m 0,0.966894 c 1.722316,0 3.849244,0.05523 5.566109,1.625969 1.716866,1.570741 3.122852,4.754766 3.122852,11.277918 0,6.52546 -1.362854,9.646429 -3.049974,11.153279 -1.687118,1.506849 -3.815152,1.508884 -5.638987,1.508883 -1.911332,0 -4.829727,-1.068795 -7.209524,-3.195283 -2.379796,-2.126488 -4.243361,-5.270377 -4.243361,-9.466879 0,-4.380931 1.983966,-7.581166 4.42738,-9.72371 2.443412,-2.142545 5.381411,-3.180177 7.025505,-3.180177 z"
         style="color:#000000;font-style:normal;font-variant:normal;font-weight:normal;font-stretch:normal;font-size:medium;line-height:normal;font-family:sans-serif;font-variant-ligatures:normal;font-variant-position:normal;font-variant-caps:normal;font-variant-numeric:normal;font-variant-alternates:normal;font-feature-settings:normal;text-indent:0;text-align:start;text-decoration:none;text-decoration-line:none;text-decoration-style:solid;text-decoration-color:#000000;letter-spacing:normal;word-spacing:normal;text-transform:none;writing-mode:lr-tb;direction:ltr;text-orientation:mixed;dominant-baseline:auto;baseline-shift:baseline;text-anchor:start;white-space:normal;shape-padding:0;clip-rule:nonzero;display:inline;overflow:visible;visibility:visible;opacity:1;isolation:auto;mix-blend-mode:normal;color-interpolation:sRGB;color-interpolation-filters:linearRGB;solid-color:#000000;solid-opacity:1;vector-effect:none;fill:#ffffff;fill-opacity:1;fill-rule:nonzero;stroke:#ffffff;stroke-width:1.5;stroke-linecap:butt;stroke-linejoin:miter;stroke-miterlimit:4;stroke-dasharray:none;stroke-dashoffset:0;stroke-opacity:1;color-rendering:auto;image-rendering:auto;shape-rendering:auto;text-rendering:auto;enable-background:accumulate" />
      <path
         style="color:#000000;font-style:normal;font-variant:normal;font-weight:normal;font-stretch:normal;font-size:medium;line-height:normal;font-family:sans-serif;font-variant-ligatures:normal;font-variant-position:normal;font-variant-caps:normal;font-variant-numeric:normal;font-variant-alternates:normal;font-feature-settings:normal;text-indent:0;text-align:start;text-decoration:none;text-decoration-line:none;text-decoration-style:solid;text-decoration-color:#000000;letter-spacing:normal;word-spacing:normal;text-transform:none;writing-mode:lr-tb;direction:ltr;text-orientation:mixed;dominant-baseline:auto;baseline-shift:baseline;text-anchor:start;white-space:normal;shape-padding:0;clip-rule:nonzero;display:inline;overflow:visible;visibility:visible;opacity:1;isolation:auto;mix-blend-mode:normal;color-interpolation:sRGB;color-interpolation-filters:linearRGB;solid-color:#000000;solid-opacity:1;vector-effect:none;fill:#ffffff;fill-opacity:1;fill-rule:nonzero;stroke:#ffffff;stroke-width:1.20000005;stroke-linecap:butt;stroke-linejoin:miter;stroke-miterlimit:4;stroke-dasharray:none;stroke-dashoffset:0;stroke-opacity:1;color-rendering:auto;image-rendering:auto;shape-rendering:auto;text-rendering:auto;enable-background:accumulate"
         d="m 33.795076,14.174618 c -3.012156,0 -7.565719,1.694436 -11.490141,5.138636 -3.92442,3.444198 -7.165215,8.707775 -7.165215,15.771762 0,6.776759 3.045497,11.946468 6.87707,15.373198 3.831574,3.426731 8.413977,5.172796 11.778286,5.172796 2.741424,0 6.428351,0.03771 9.410004,-2.627677 2.981652,-2.66539 5.082336,-7.870673 5.082336,-17.918317 0,-10.051122 -2.172931,-15.342763 -5.178384,-18.094824 -3.005456,-2.752061 -6.694047,-2.815574 -9.313956,-2.815574 z m 0,1.457607 c 2.594148,0 5.79772,0.08326 8.383657,2.451173 2.585939,2.367913 4.703631,7.167875 4.703631,17.001618 0,9.837223 -2.052727,14.542128 -4.593861,16.813724 -2.541133,2.271597 -5.746371,2.274665 -8.493427,2.274663 -2.878843,0 -7.274523,-1.611224 -10.858966,-4.816935 -3.584442,-3.20571 -6.391337,-7.945166 -6.391337,-14.271452 0,-6.604314 2.988245,-11.428713 6.668507,-14.658629 3.68026,-3.229917 8.105467,-4.794162 10.581796,-4.794162 z"
         id="path4641"
         inkscape:connector-curvature="0" />
      <path
         inkscape:connector-curvature="0"
         id="path4643"
         d="m 29.89895,4.4499428 c -3.936763,0 -9.888083,2.489384 -15.017142,7.5494392 -5.1290558,5.060053 -9.3646412,12.79305 -9.3646412,23.171124 0,9.956092 3.9803392,17.551184 8.9880472,22.585571 5.007711,5.034391 10.996723,7.599628 15.393736,7.599628 3.582929,0 8.401592,0.0554 12.29849,-3.860459 3.896896,-3.915864 6.642404,-11.563219 6.642404,-26.32474 0,-14.76663 -2.839932,-22.540858 -6.767936,-26.5840563 C 38.143902,4.543253 33.323064,4.4499428 29.89895,4.4499428 Z m 0,2.141447 c 3.390446,0 7.577383,0.1223208 10.957097,3.6011472 3.379715,3.478825 6.147452,10.530701 6.147452,24.977969 0,14.452381 -2.68283,21.364603 -6.003988,24.701925 -3.321156,3.337322 -7.510271,3.34183 -11.100561,3.341827 -3.762529,0 -9.507501,-2.367135 -14.192221,-7.076812 -4.684719,-4.709678 -8.3532161,-11.672661 -8.3532161,-20.96694 0,-9.702744 3.9055141,-16.790522 8.7154651,-21.535761 C 20.878928,8.8895047 26.66249,6.5913898 29.89895,6.5913898 Z"
         style="color:#000000;font-style:normal;font-variant:normal;font-weight:normal;font-stretch:normal;font-size:medium;line-height:normal;font-family:sans-serif;font-variant-ligatures:normal;font-variant-position:normal;font-variant-caps:normal;font-variant-numeric:normal;font-variant-alternates:normal;font-feature-settings:normal;text-indent:0;text-align:start;text-decoration:none;text-decoration-line:none;text-decoration-style:solid;text-decoration-color:#000000;letter-spacing:normal;word-spacing:normal;text-transform:none;writing-mode:lr-tb;direction:ltr;text-orientation:mixed;dominant-baseline:auto;baseline-shift:baseline;text-anchor:start;white-space:normal;shape-padding:0;clip-rule:nonzero;display:inline;overflow:visible;visibility:visible;opacity:1;isolation:auto;mix-blend-mode:normal;color-interpolation:sRGB;color-interpolation-filters:linearRGB;solid-color:#000000;solid-opacity:1;vector-effect:none;fill:#ffffff;fill-opacity:1;fill-rule:nonzero;stroke:#ffffff;stroke-width:0.9833079;stroke-linecap:butt;stroke-linejoin:miter;stroke-miterlimit:4;stroke-dasharray:none;stroke-dashoffset:0;stroke-opacity:1;color-rendering:auto;image-rendering:auto;shape-rendering:auto;text-rendering:auto;enable-background:accumulate" />
    </g>
    <path
       style="opacity:1;fill:#ffffff;fill-opacity:1;stroke:#ffffff;stroke-width:1.05046713;stroke-miterlimit:4;stroke-dasharray:none;stroke-opacity:1"
       d="M 13.121094 69.619141 C 8.8504478 69.619141 5.4121094 73.057479 5.4121094 77.328125 L 5.4121094 89.205078 C 5.4121094 93.475724 8.8504478 96.914062 13.121094 96.914062 L 87.144531 96.914062 C 91.415177 96.914062 94.853516 93.475724 94.853516 89.205078 L 94.853516 77.328125 C 94.853516 73.057479 91.415177 69.619141 87.144531 69.619141 L 13.121094 69.619141 z M 20.232422 72.339844 A 10.74165 10.926074 0 0 1 30.974609 83.265625 A 10.74165 10.926074 0 0 1 20.232422 94.191406 A 10.74165 10.926074 0 0 1 9.4902344 83.265625 A 10.74165 10.926074 0 0 1 20.232422 72.339844 z M 82.605469 72.65625 C 84.547691 72.65625 86.234905 73.084693 87.666016 73.943359 C 89.117571 74.802026 90.232877 75.956648 91.009766 77.408203 L 86.714844 78.972656 C 86.244622 78.134434 85.622592 77.540915 84.845703 77.193359 C 84.089259 76.825359 83.291347 76.642578 82.453125 76.642578 C 81.737569 76.642578 81.072318 76.794896 80.458984 77.101562 C 79.845651 77.387785 79.304207 77.818181 78.833984 78.390625 C 78.384207 78.963069 78.027497 79.658785 77.761719 80.476562 C 77.495941 81.29434 77.363281 82.222958 77.363281 83.265625 C 77.363281 84.328736 77.495941 85.280918 77.761719 86.119141 C 78.027497 86.936918 78.384207 87.630681 78.833984 88.203125 C 79.304207 88.755125 79.845651 89.174715 80.458984 89.460938 C 81.092762 89.74716 81.777672 89.890625 82.513672 89.890625 C 82.902116 89.890625 83.302049 89.860161 83.710938 89.798828 C 84.119826 89.71705 84.517806 89.593243 84.90625 89.429688 C 85.294694 89.245688 85.653358 89.010832 85.980469 88.724609 C 86.328024 88.417943 86.623807 88.039622 86.869141 87.589844 L 91.130859 89.154297 C 90.292637 90.626297 89.12721 91.780918 87.634766 92.619141 C 86.142321 93.457363 84.426597 93.876953 82.484375 93.876953 C 80.889708 93.876953 79.457009 93.631292 78.189453 93.140625 C 76.921898 92.649958 75.849814 91.945391 74.970703 91.025391 C 74.091592 90.105391 73.417488 88.990085 72.947266 87.681641 C 72.477043 86.373196 72.240234 84.901181 72.240234 83.265625 C 72.240234 81.650514 72.477043 80.189304 72.947266 78.880859 C 73.437932 77.572415 74.131694 76.459062 75.03125 75.539062 C 75.930806 74.619063 77.015648 73.912542 78.283203 73.421875 C 79.571203 72.910764 81.010802 72.65625 82.605469 72.65625 z M 35.257812 73.023438 L 43.138672 73.023438 C 44.467561 73.023438 45.693915 73.114828 46.818359 73.298828 C 47.963248 73.482828 48.943941 73.811028 49.761719 74.28125 C 50.599941 74.751472 51.254387 75.405918 51.724609 76.244141 C 52.194832 77.061918 52.429688 78.103538 52.429688 79.371094 C 52.429687 79.943538 52.349102 80.526252 52.185547 81.119141 C 52.042436 81.71203 51.785969 82.275085 51.417969 82.806641 C 51.049969 83.317752 50.549793 83.787464 49.916016 84.216797 C 49.282238 84.64613 48.473521 84.993988 47.492188 85.259766 L 53.443359 93.509766 L 47.830078 93.509766 L 42.279297 85.78125 L 40.101562 85.78125 L 40.101562 93.509766 L 35.257812 93.509766 L 35.257812 73.023438 z M 55.3125 73.023438 L 71.076172 73.023438 L 71.076172 77.287109 L 60.158203 77.287109 L 60.158203 80.84375 L 66.8125 80.84375 L 66.8125 85.105469 L 60.158203 85.105469 L 60.158203 89.246094 L 71.076172 89.246094 L 71.076172 93.509766 L 55.3125 93.509766 L 55.3125 73.023438 z M 40.101562 77.101562 L 40.101562 81.732422 L 43.291016 81.732422 C 43.86346 81.732422 44.396052 81.701958 44.886719 81.640625 C 45.377385 81.579292 45.796976 81.46629 46.144531 81.302734 C 46.512531 81.118734 46.797509 80.883878 47.001953 80.597656 C 47.206398 80.29099 47.308594 79.903816 47.308594 79.433594 C 47.308594 78.963372 47.206398 78.574245 47.001953 78.267578 C 46.797509 77.960911 46.512531 77.726056 46.144531 77.5625 C 45.796976 77.3785 45.377385 77.254693 44.886719 77.193359 C 44.396052 77.132026 43.86346 77.101562 43.291016 77.101562 L 40.101562 77.101562 z "
       id="rect4656" />
    <g
       id="g4671"
       transform="rotate(180,50.178505,34.902845)" />
    <g
       id="g4714"
       transform="rotate(180,49.799727,34.650582)">
      <path
         style="color:#000000;font-style:normal;font-variant:normal;font-weight:normal;font-stretch:normal;font-size:medium;line-height:normal;font-family:sans-serif;font-variant-ligatures:normal;font-variant-position:normal;font-variant-caps:normal;font-variant-numeric:normal;font-variant-alternates:normal;font-feature-settings:normal;text-indent:0;text-align:start;text-decoration:none;text-decoration-line:none;text-decoration-style:solid;text-decoration-color:#000000;letter-spacing:normal;word-spacing:normal;text-transform:none;writing-mode:lr-tb;direction:ltr;text-orientation:mixed;dominant-baseline:auto;baseline-shift:baseline;text-anchor:start;white-space:normal;shape-padding:0;clip-rule:nonzero;display:inline;overflow:visible;visibility:visible;opacity:1;isolation:auto;mix-blend-mode:normal;color-interpolation:sRGB;color-interpolation-filters:linearRGB;solid-color:#000000;solid-opacity:1;vector-effect:none;fill:#ffffff;fill-opacity:1;fill-rule:nonzero;stroke:#ffffff;stroke-width:1.5;stroke-linecap:butt;stroke-linejoin:miter;stroke-miterlimit:4;stroke-dasharray:none;stroke-dashoffset:0;stroke-opacity:1;color-rendering:auto;image-rendering:auto;shape-rendering:auto;text-rendering:auto;enable-background:accumulate"
         d="m 38.11318,21.152892 c -1.999841,0 -5.02306,1.123992 -7.628577,3.408681 -2.605516,2.284687 -4.757155,5.776249 -4.757155,10.4621 0,4.495321 2.021977,7.924615 4.565849,10.197715 2.543873,2.2731 5.586239,3.431342 7.819883,3.431342 1.820096,0 4.267936,0.02501 6.247525,-1.743054 1.979588,-1.768069 3.374283,-5.220961 3.374283,-11.886003 0,-6.667349 -1.442661,-10.177526 -3.438052,-12.003088 -1.995393,-1.825563 -4.444337,-1.867693 -6.183756,-1.867693 z m 0,0.966894 c 1.722316,0 3.849244,0.05523 5.566109,1.625969 1.716866,1.570741 3.122852,4.754766 3.122852,11.277918 0,6.52546 -1.362854,9.646429 -3.049974,11.153279 -1.687118,1.506849 -3.815152,1.508884 -5.638987,1.508883 -1.911332,0 -4.829727,-1.068795 -7.209524,-3.195283 -2.379796,-2.126488 -4.243361,-5.270377 -4.243361,-9.466879 0,-4.380931 1.983966,-7.581166 4.42738,-9.72371 2.443412,-2.142545 5.381411,-3.180177 7.025505,-3.180177 z"
         id="path4708"
         inkscape:connector-curvature="0" />
      <path
         inkscape:connector-curvature="0"
         id="path4710"
         d="m 33.795076,14.174618 c -3.012156,0 -7.565719,1.694436 -11.490141,5.138636 -3.92442,3.444198 -7.165215,8.707775 -7.165215,15.771762 0,6.776759 3.045497,11.946468 6.87707,15.373198 3.831574,3.426731 8.413977,5.172796 11.778286,5.172796 2.741424,0 6.428351,0.03771 9.410004,-2.627677 2.981652,-2.66539 5.082336,-7.870673 5.082336,-17.918317 0,-10.051122 -2.172931,-15.342763 -5.178384,-18.094824 -3.005456,-2.752061 -6.694047,-2.815574 -9.313956,-2.815574 z m 0,1.457607 c 2.594148,0 5.79772,0.08326 8.383657,2.451173 2.585939,2.367913 4.703631,7.167875 4.703631,17.001618 0,9.837223 -2.052727,14.542128 -4.593861,16.813724 -2.541133,2.271597 -5.746371,2.274665 -8.493427,2.274663 -2.878843,0 -7.274523,-1.611224 -10.858966,-4.816935 -3.584442,-3.20571 -6.391337,-7.945166 -6.391337,-14.271452 0,-6.604314 2.988245,-11.428713 6.668507,-14.658629 3.68026,-3.229917 8.105467,-4.794162 10.581796,-4.794162 z"
         style="color:#000000;font-style:normal;font-variant:normal;font-weight:normal;font-stretch:normal;font-size:medium;line-height:normal;font-family:sans-serif;font-variant-ligatures:normal;font-variant-position:normal;font-variant-caps:normal;font-variant-numeric:normal;font-variant-alternates:normal;font-feature-settings:normal;text-indent:0;text-align:start;text-decoration:none;text-decoration-line:none;text-decoration-style:solid;text-decoration-color:#000000;letter-spacing:normal;word-spacing:normal;text-transform:none;writing-mode:lr-tb;direction:ltr;text-orientation:mixed;dominant-baseline:auto;baseline-shift:baseline;text-anchor:start;white-space:normal;shape-padding:0;clip-rule:nonzero;display:inline;overflow:visible;visibility:visible;opacity:1;isolation:auto;mix-blend-mode:normal;color-interpolation:sRGB;color-interpolation-filters:linearRGB;solid-color:#000000;solid-opacity:1;vector-effect:none;fill:#ffffff;fill-opacity:1;fill-rule:nonzero;stroke:#ffffff;stroke-width:1.20000005;stroke-linecap:butt;stroke-linejoin:miter;stroke-miterlimit:4;stroke-dasharray:none;stroke-dashoffset:0;stroke-opacity:1;color-rendering:auto;image-rendering:auto;shape-rendering:auto;text-rendering:auto;enable-background:accumulate" />
      <path
         style="color:#000000;font-style:normal;font-variant:normal;font-weight:normal;font-stretch:normal;font-size:medium;line-height:normal;font-family:sans-serif;font-variant-ligatures:normal;font-variant-position:normal;font-variant-caps:normal;font-variant-numeric:normal;font-variant-alternates:normal;font-feature-settings:normal;text-indent:0;text-align:start;text-decoration:none;text-decoration-line:none;text-decoration-style:solid;text-decoration-color:#000000;letter-spacing:normal;word-spacing:normal;text-transform:none;writing-mode:lr-tb;direction:ltr;text-orientation:mixed;dominant-baseline:auto;baseline-shift:baseline;text-anchor:start;white-space:normal;shape-padding:0;clip-rule:nonzero;display:inline;overflow:visible;visibility:visible;opacity:1;isolation:auto;mix-blend-mode:normal;color-interpolation:sRGB;color-interpolation-filters:linearRGB;solid-color:#000000;solid-opacity:1;vector-effect:none;fill:#ffffff;fill-opacity:1;fill-rule:nonzero;stroke:#ffffff;stroke-width:0.9833079;stroke-linecap:butt;stroke-linejoin:miter;stroke-miterlimit:4;stroke-dasharray:none;stroke-dashoffset:0;stroke-opacity:1;color-rendering:auto;image-rendering:auto;shape-rendering:auto;text-rendering:auto;enable-background:accumulate"
         d="m 29.89895,4.4499428 c -3.936763,0 -9.888083,2.489384 -15.017142,7.5494392 -5.1290558,5.060053 -9.3646412,12.79305 -9.3646412,23.171124 0,9.956092 3.9803392,17.551184 8.9880472,22.585571 5.007711,5.034391 10.996723,7.599628 15.393736,7.599628 3.582929,0 8.401592,0.0554 12.29849,-3.860459 3.896896,-3.915864 6.642404,-11.563219 6.642404,-26.32474 0,-14.76663 -2.839932,-22.540858 -6.767936,-26.5840563 C 38.143902,4.543253 33.323064,4.4499428 29.89895,4.4499428 Z m 0,2.141447 c 3.390446,0 7.577383,0.1223208 10.957097,3.6011472 3.379715,3.478825 6.147452,10.530701 6.147452,24.977969 0,14.452381 -2.68283,21.364603 -6.003988,24.701925 -3.321156,3.337322 -7.510271,3.34183 -11.100561,3.341827 -3.762529,0 -9.507501,-2.367135 -14.192221,-7.076812 -4.684719,-4.709678 -8.3532161,-11.672661 -8.3532161,-20.96694 0,-9.702744 3.9055141,-16.790522 8.7154651,-21.535761 C 20.878928,8.8895047 26.66249,6.5913898 29.89895,6.5913898 Z"
         id="path4712"
         inkscape:connector-curvature="0" />
    </g>
  </g>
</svg>
